<svg xmlns="http://www.w3.org/2000/svg" version="1.1" xmlns:xlink="http://www.w3.org/1999/xlink" xmlns:svgjs="http://svgjs.dev/svgjs" width="1000" height="1000" viewBox="0 0 1000 1000"><rect width="1000" height="1000" fill="#ffffff"></rect><g transform="matrix(0.7,0,0,0.7,149.57575757575756,282.1265587044535)"><svg viewBox="0 0 396 247" data-background-color="#fce44d" preserveAspectRatio="xMidYMid meet" height="623" width="1000" xmlns="http://www.w3.org/2000/svg" xmlns:xlink="http://www.w3.org/1999/xlink"><g id="tight-bounds" transform="matrix(1,0,0,1,0.2400000000000091,-0.09999999999999432)"><svg viewBox="0 0 395.52 247.2" height="247.2" width="395.52"><g><svg></svg></g><g><svg viewBox="0 0 395.52 247.2" height="247.2" width="395.52"><g transform="matrix(1,0,0,1,75.54432,69.19784865301374)"><svg viewBox="0 0 244.43135999999998 108.80430269397252" height="108.80430269397252" width="244.43135999999998"><g><svg viewBox="0 0 244.43135999999998 108.80430269397252" height="108.80430269397252" width="244.43135999999998"><g><svg viewBox="0 0 244.43135999999998 108.80430269397252" height="108.80430269397252" width="244.43135999999998"><g><svg viewBox="0 0 244.43135999999998 108.80430269397252" height="108.80430269397252" width="244.43135999999998"><g id="textblocktransform"><svg viewBox="0 0 244.43135999999998 108.80430269397252" height="108.80430269397252" width="244.43135999999998" id="textblock"><g><svg viewBox="0 0 244.43135999999998 58.683841813373625" height="58.683841813373625" width="244.43135999999998"><g transform="matrix(1,0,0,1,0,0)"><svg width="244.43135999999998" viewBox="0.6000000238418579 -43.599998474121094 264.66998291015625 63.54999923706055" height="58.683841813373625" data-palette-color="#374151"><path d="M7.8 0.5Q5.55 0.5 3.95-0.43 2.35-1.35 1.53-2.65 0.7-3.95 0.6-5.1L0.6-5.1Q0.6-6.1 1.15-7.15 1.7-8.2 2.45-8.9 3.2-9.6 3.6-9.6L3.6-9.6Q3.85-9.6 3.85-9.3L3.85-9.3Q4.1-6.55 5.35-4.28 6.6-2 9.85-2L9.85-2Q12.45-2 14-3.6 15.55-5.2 15.55-8.05L15.55-8.05Q15.55-9.75 14.9-11.2 14.25-12.65 12.75-14.45L12.75-14.45 7.85-20.25Q7.05-21.3 6.6-22.43 6.15-23.55 6.15-25.15L6.15-25.15Q6.15-27.75 7.35-30.05 8.55-32.35 10.85-33.77 13.15-35.2 16.2-35.2L16.2-35.2Q18.7-35.2 20.3-34.18 21.9-33.15 21.9-31.25L21.9-31.25Q21.9-29.8 20.7-27.9L20.7-27.9Q20.25-27.15 19.7-27.15L19.7-27.15Q19.3-27.15 19.18-27.53 19.05-27.9 18.95-28.9L18.95-28.9Q18.8-32.9 14.65-32.9L14.65-32.9Q12.15-32.9 10.75-31.63 9.35-30.35 9.35-28.15L9.35-28.15Q9.35-25.95 11.2-23.7L11.2-23.7 16-18.15Q19.1-14.5 19.1-10.5L19.1-10.5Q19.1-7.6 17.48-5.08 15.85-2.55 13.23-1.03 10.6 0.5 7.8 0.5L7.8 0.5ZM28.8 0.5Q27.3 0.5 26.7-0.53 26.1-1.55 26.1-3.3L26.1-3.3Q26.1-4.6 26.32-6.08 26.55-7.55 26.6-7.85L26.6-7.85 28.65-20.7 23.6-20.7Q23.35-20.7 23.35-20.95L23.35-20.95Q23.35-21.45 24.45-22.38 25.55-23.3 26.05-23.3L26.05-23.3 29.05-23.3 29.55-26.4Q29.75-28.05 31.1-29.35 32.45-30.65 33.8-30.65L33.8-30.65Q34.05-30.65 34.05-30.4L34.05-30.4Q34.05-30.2 33.6-29.23 33.15-28.25 32.95-27.15L32.95-27.15 32.35-23.3 37.25-23.3Q37.55-23.3 37.55-23L37.55-23Q37.55-22.6 36.37-21.65 35.2-20.7 34.85-20.7L34.85-20.7 32.05-20.7 30-7.95Q29.95-7.6 29.72-6.25 29.5-4.9 29.5-4.15L29.5-4.15Q29.5-2.5 30.6-2.5L30.6-2.5Q31.4-2.5 32.3-3.28 33.2-4.05 33.9-5.45L33.9-5.45Q33.95-5.55 34.02-5.65 34.1-5.75 34.2-5.75L34.2-5.75Q34.45-5.75 34.45-5.1L34.45-5.1Q34.45-4.1 33.57-2.75 32.7-1.4 31.37-0.45 30.05 0.5 28.8 0.5L28.8 0.5ZM40.65 0.5Q38.1 0.5 38.1-4.35L38.1-4.35Q38.1-9 40.12-13.53 42.15-18.05 45.6-20.93 49.05-23.8 53.05-23.8L53.05-23.8Q55.1-23.8 56.6-23.15L56.6-23.15Q55.95-20.6 55.7-19.4L55.7-19.4 54.65-14Q53.25-7.6 52.95-5.15L52.95-5.15Q52.9-4.8 52.9-4.3L52.9-4.3Q52.9-3.2 53.55-3.2L53.55-3.2Q54.35-3.2 55.05-4.23 55.75-5.25 56.65-7.15L56.65-7.15Q56.7-7.2 56.82-7.45 56.95-7.7 57.15-7.7L57.15-7.7Q57.45-7.7 57.45-7.1L57.45-7.1 57.35-6.3Q57-4.65 55.92-3.05 54.85-1.45 53.52-0.48 52.2 0.5 51.15 0.5L51.15 0.5Q49.4 0.5 49.4-2.35L49.4-2.35Q49.4-3.45 49.65-4.6L49.65-4.6 50.5-8.95 50.45-8.95Q48.05-4.75 45.32-2.13 42.6 0.5 40.65 0.5L40.65 0.5ZM43-3.6Q44.4-3.6 46.22-5.78 48.05-7.95 49.62-11.1 51.2-14.25 51.8-16.75L51.8-16.75 52.6-19.95Q51.1-20.95 49.45-20.95L49.45-20.95Q47.3-20.95 45.52-18.48 43.75-16 42.75-12.48 41.75-8.95 41.75-6.1L41.75-6.1Q41.75-4.85 42.02-4.23 42.3-3.6 43-3.6L43-3.6ZM62.04 0.5Q61.59 0.5 61.59 0.2L61.59 0.2Q61.59 0 61.82-0.68 62.04-1.35 62.44-3L62.44-3Q63.44-7.15 64.84-16.85L64.84-16.85Q65.14-18.75 65.14-19.5L65.14-19.5Q65.14-20.15 64.84-20.15L64.84-20.15Q63.99-20.15 62.29-17.15L62.29-17.15Q62.04-16.7 61.84-16.38 61.64-16.05 61.52-15.9 61.39-15.75 61.24-15.75L61.24-15.75Q60.84-15.75 60.84-16.25L60.84-16.25Q60.84-17.25 61.94-19.1 63.04-20.95 64.54-22.38 66.04-23.8 67.24-23.8L67.24-23.8Q68.04-23.8 68.39-23.1 68.74-22.4 68.74-21.35L68.74-21.35Q68.74-19.7 67.94-14.9L67.94-14.9 67.99-14.9Q70.29-18.95 73.04-21.38 75.79-23.8 77.79-23.8L77.79-23.8Q79.89-23.8 79.89-20.85L79.89-20.85Q79.89-19.75 79.44-17.15L79.44-17.15 78.29-11.15Q77.04-4.8 77.04-3.95L77.04-3.95Q77.04-3.6 77.22-3.33 77.39-3.05 77.79-3.05L77.79-3.05Q79.14-3.05 80.89-7.15L80.89-7.15Q81.04-7.7 81.39-7.7L81.39-7.7Q81.69-7.7 81.69-7.1L81.69-7.1Q81.69-6.65 81.64-6.3L81.64-6.3Q81.29-4.5 80.19-2.93 79.09-1.35 77.74-0.43 76.39 0.5 75.29 0.5L75.29 0.5Q74.24 0.5 73.87-0.38 73.49-1.25 73.49-2.3L73.49-2.3Q73.49-4.55 74.74-10.4L74.74-10.4Q75.94-16.1 76.04-18.3L76.04-18.3Q76.09-19.2 75.92-19.58 75.74-19.95 75.09-19.95L75.09-19.95Q73.54-19.95 71.77-17.9 69.99-15.85 68.59-12.88 67.19-9.9 66.74-7.45L66.74-7.45 65.94-3.1Q65.64-1.8 64.34-0.65 63.04 0.5 62.04 0.5L62.04 0.5ZM87.44 0.5Q86.49 0.5 86.07-0.43 85.64-1.35 85.64-2.75L85.64-2.75Q85.64-3.7 85.84-5L85.84-5 88.79-24.7Q89.84-31.5 91.34-35.2 92.84-38.9 94.94-40.55L94.94-40.55Q96.14-41.5 97.44-41.95 98.74-42.4 101.44-43.05L101.44-43.05Q102.69-43.3 103.04-43.45 103.39-43.6 103.49-43.6L103.49-43.6Q103.84-43.6 103.84-43.2L103.84-43.2Q103.84-43 103.62-42.6 103.39-42.2 102.89-41.75L102.89-41.75Q102.34-41.25 101.84-41.08 101.34-40.9 100.64-40.85L100.64-40.85Q97.74-40.55 96.44-39.05L96.44-39.05Q93.99-36.25 92.84-28.7L92.84-28.7 89.19-5.15Q89.14-4.8 89.14-4.3L89.14-4.3Q89.14-3.2 89.79-3.2L89.79-3.2Q91.29-3.2 93.29-7.65L93.29-7.65Q93.49-8.2 93.84-8.2L93.84-8.2Q94.19-8.2 94.19-7.5L94.19-7.5Q94.19-5.85 93.02-3.95 91.84-2.05 90.24-0.78 88.64 0.5 87.44 0.5L87.44 0.5ZM102.49 0.5Q100.24 0.5 98.91-1.23 97.59-2.95 97.59-6L97.59-6Q97.59-9.7 99.36-13.93 101.14-18.15 103.94-20.98 106.74-23.8 109.59-23.8L109.59-23.8Q112.19-23.8 112.19-20.65L112.19-20.65Q112.19-18.1 110.69-15.65 109.19-13.2 106.66-11.33 104.14-9.45 101.14-8.45L101.14-8.45Q101.14-5.75 102.01-4.55 102.89-3.35 104.59-3.35L104.59-3.35Q106.39-3.35 107.89-4.5 109.39-5.65 110.44-7.65L110.44-7.65Q110.59-7.95 110.74-8.15 110.89-8.35 111.14-8.35L111.14-8.35Q111.54-8.35 111.54-7.75L111.54-7.75Q111.54-6.4 110.19-4.4 108.84-2.4 106.74-0.95 104.64 0.5 102.49 0.5L102.49 0.5ZM102.74-11.1Q104.04-11.1 105.51-12.03 106.99-12.95 107.99-14.55 108.99-16.15 108.99-18.15L108.99-18.15Q108.99-20.5 107.34-20.5L107.34-20.5Q105.99-20.5 104.76-19.05 103.54-17.6 102.71-15.45 101.89-13.3 101.59-11.3L101.59-11.3Q101.89-11.1 102.74-11.1L102.74-11.1ZM117.14 19.95Q115.19 19.95 113.84 18.88 112.49 17.8 111.84 16.15 111.19 14.5 111.19 12.75L111.19 12.75Q111.19 11.1 111.79 10.13 112.39 9.15 113.09 8.8 113.79 8.45 114.14 8.45L114.14 8.45Q114.39 8.45 114.39 8.95L114.39 8.95Q114.39 16.75 119.39 16.75L119.39 16.75Q122.94 16.75 124.94 12.5L124.94 12.5Q125.69 10.85 126.34 8.35 126.99 5.85 128.09 0.55L128.09 0.55Q128.54-1.6 128.59-1.9L128.59-1.9 130.09-8.8 130.04-8.8Q128.84-6.3 127.19-4.17 125.54-2.05 123.94-0.78 122.34 0.5 121.34 0.5L121.34 0.5Q120.24 0.5 119.81-1.18 119.39-2.85 119.44-5.25L119.44-5.25 119.84-17.75Q119.89-18.15 119.89-18.85L119.89-18.85Q119.89-19.65 119.71-20.05 119.54-20.45 119.04-20.45L119.04-20.45Q118.39-20.45 117.59-19.6 116.79-18.75 116.19-17.4L116.19-17.4Q115.89-16.55 115.54-16.55L115.54-16.55Q115.14-16.55 115.14-17.15L115.14-17.15Q115.14-18.4 116.04-20 116.94-21.6 118.31-22.7 119.69-23.8 120.94-23.8L120.94-23.8Q122.34-23.8 122.84-22.4 123.34-21 123.34-18.6L123.34-18.6 123.29-17 122.84-8.75 122.79-7.1Q122.79-5.5 123.01-4.8 123.24-4.1 123.84-4.1L123.84-4.1Q124.94-4.1 126.44-6.2 127.94-8.3 129.29-11.35 130.64-14.4 131.29-17.05L131.29-17.05 132.04-20.1Q132.49-21.95 133.76-22.88 135.04-23.8 136.09-23.8L136.09-23.8Q136.49-23.8 136.49-23.55L136.49-23.55Q136.49-23.3 136.31-22.85 136.14-22.4 136.04-22.2L136.04-22.2Q135.64-21.15 135.34-19.93 135.04-18.7 134.74-17L134.74-17 132.09-2.8 131.59 0.05Q130.99 3.55 130.49 5.58 129.99 7.6 129.09 9.58 128.19 11.55 126.54 13.65L126.54 13.65Q124.29 16.65 121.84 18.3 119.39 19.95 117.14 19.95L117.14 19.95ZM173.23 0.5Q170.88 0.5 170.33-2.9L170.33-2.9Q169.88-5.65 169.88-12.75L169.88-12.75 168.63-11.8 162.53-11.8Q161.38-8.85 159.86-6.5 158.33-4.15 156.63-3L156.63-3 156.63-2.9Q157.28-2.6 157.88-2.6L157.88-2.6Q158.63-2.6 159.31-2.85 159.98-3.1 160.13-3.1L160.13-3.1Q160.48-3.1 160.48-2.85L160.48-2.85Q160.48-2.5 159.78-1.65L159.78-1.65Q158.98-0.85 158.08-0.43 157.18 0 156.38 0L156.38 0Q155.73 0 154.53-0.4L154.53-0.4Q153.33-0.8 152.73-0.8L152.73-0.8Q151.98-0.8 151.21-0.4 150.43 0 150.18 0L150.18 0Q149.93 0 149.93-0.25L149.93-0.25Q149.93-0.75 150.33-1.43 150.73-2.1 151.28-2.35L151.28-2.35Q151.58-2.5 151.86-2.55 152.13-2.6 152.53-2.75L152.53-2.75Q154.48-3.5 155.96-5.48 157.43-7.45 158.48-9.93 159.53-12.4 160.88-16.25L160.88-16.25Q162.43-20.6 163.56-23.33 164.68-26.05 166.23-28.38 167.78-30.7 169.78-32L169.78-32 169.78-32.05Q169.08-32.15 168.73-32.25L168.73-32.25Q168.53-32.3 167.51-32.45 166.48-32.6 164.88-32.6L164.88-32.6Q162.18-32.6 160.36-31.6 158.53-30.6 156.93-28.35L156.93-28.35Q156.43-27.55 156.13-27.55L156.13-27.55Q155.83-27.55 155.83-27.95L155.83-27.95 155.88-28.45Q156.63-31.5 159.31-33.35 161.98-35.2 165.53-35.2L165.53-35.2Q166.98-35.2 169.88-34.7L169.88-34.7Q172.58-34.2 173.73-34.2L173.73-34.2Q175.03-34.2 176.48-34.7L176.48-34.7 176.48-34.65Q175.13-32.4 174.38-27.63 173.63-22.85 173.63-15.8L173.63-15.8Q173.63-8.55 173.93-6L173.93-6Q174.03-4.55 174.36-3.83 174.68-3.1 175.48-3.1L175.48-3.1Q175.98-3.1 176.46-3.35 176.93-3.6 177.73-4.1L177.73-4.1Q178.68-4.75 178.93-4.75L178.93-4.75Q179.23-4.75 179.23-4.55L179.23-4.55Q179.23-4.15 178.93-3.6L178.93-3.6Q177.98-1.9 176.36-0.7 174.73 0.5 173.23 0.5L173.23 0.5ZM163.43-14.8L169.93-14.8Q170.03-19.4 170.58-23.93 171.13-28.45 171.98-31.3L171.98-31.3 171.93-31.3Q169.98-30.4 168.16-26.95 166.33-23.5 163.98-16.5L163.98-16.5 163.43-14.8ZM183.03 0.5Q182.58 0.5 182.58 0.2L182.58 0.2Q182.58 0 182.8-0.68 183.03-1.35 183.43-3L183.43-3Q184.43-7.15 185.83-16.85L185.83-16.85Q186.13-18.75 186.13-19.5L186.13-19.5Q186.13-20.15 185.83-20.15L185.83-20.15Q184.98-20.15 183.28-17.15L183.28-17.15Q183.03-16.7 182.83-16.38 182.63-16.05 182.5-15.9 182.38-15.75 182.23-15.75L182.23-15.75Q181.83-15.75 181.83-16.25L181.83-16.25Q181.83-17.25 182.93-19.1 184.03-20.95 185.53-22.38 187.03-23.8 188.23-23.8L188.23-23.8Q189.03-23.8 189.38-23.1 189.73-22.4 189.73-21.35L189.73-21.35Q189.73-19.7 188.93-14.9L188.93-14.9 188.98-14.9Q191.28-18.95 194.03-21.38 196.78-23.8 198.78-23.8L198.78-23.8Q200.88-23.8 200.88-20.85L200.88-20.85Q200.88-19.75 200.43-17.15L200.43-17.15 199.28-11.15Q198.03-4.8 198.03-3.95L198.03-3.95Q198.03-3.6 198.2-3.33 198.38-3.05 198.78-3.05L198.78-3.05Q200.13-3.05 201.88-7.15L201.88-7.15Q202.03-7.7 202.38-7.7L202.38-7.7Q202.68-7.7 202.68-7.1L202.68-7.1Q202.68-6.65 202.63-6.3L202.63-6.3Q202.28-4.5 201.18-2.93 200.08-1.35 198.73-0.43 197.38 0.5 196.28 0.5L196.28 0.5Q195.23 0.5 194.85-0.38 194.48-1.25 194.48-2.3L194.48-2.3Q194.48-4.55 195.73-10.4L195.73-10.4Q196.93-16.1 197.03-18.3L197.03-18.3Q197.08-19.2 196.9-19.58 196.73-19.95 196.08-19.95L196.08-19.95Q194.53-19.95 192.75-17.9 190.98-15.85 189.58-12.88 188.18-9.9 187.73-7.45L187.73-7.45 186.93-3.1Q186.63-1.8 185.33-0.65 184.03 0.5 183.03 0.5L183.03 0.5ZM207.68 19.95Q205.73 19.95 204.38 18.88 203.03 17.8 202.38 16.15 201.73 14.5 201.73 12.75L201.73 12.75Q201.73 11.1 202.33 10.13 202.93 9.15 203.63 8.8 204.33 8.45 204.68 8.45L204.68 8.45Q204.93 8.45 204.93 8.95L204.93 8.95Q204.93 16.75 209.93 16.75L209.93 16.75Q213.48 16.75 215.48 12.5L215.48 12.5Q216.23 10.85 216.88 8.35 217.53 5.85 218.63 0.55L218.63 0.55Q219.08-1.6 219.13-1.9L219.13-1.9 220.63-8.8 220.58-8.8Q219.38-6.3 217.73-4.17 216.08-2.05 214.48-0.78 212.88 0.5 211.88 0.5L211.88 0.5Q210.78 0.5 210.35-1.18 209.93-2.85 209.98-5.25L209.98-5.25 210.38-17.75Q210.43-18.15 210.43-18.85L210.43-18.85Q210.43-19.65 210.25-20.05 210.08-20.45 209.58-20.45L209.58-20.45Q208.93-20.45 208.13-19.6 207.33-18.75 206.73-17.4L206.73-17.4Q206.43-16.55 206.08-16.55L206.08-16.55Q205.68-16.55 205.68-17.15L205.68-17.15Q205.68-18.4 206.58-20 207.48-21.6 208.85-22.7 210.23-23.8 211.48-23.8L211.48-23.8Q212.88-23.8 213.38-22.4 213.88-21 213.88-18.6L213.88-18.6 213.83-17 213.38-8.75 213.33-7.1Q213.33-5.5 213.55-4.8 213.78-4.1 214.38-4.1L214.38-4.1Q215.48-4.1 216.98-6.2 218.48-8.3 219.83-11.35 221.18-14.4 221.83-17.05L221.83-17.05 222.58-20.1Q223.03-21.95 224.3-22.88 225.58-23.8 226.63-23.8L226.63-23.8Q227.03-23.8 227.03-23.55L227.03-23.55Q227.03-23.3 226.85-22.85 226.68-22.4 226.58-22.2L226.58-22.2Q226.18-21.15 225.88-19.93 225.58-18.7 225.28-17L225.28-17 222.63-2.8 222.13 0.05Q221.53 3.55 221.03 5.58 220.53 7.6 219.63 9.58 218.73 11.55 217.08 13.65L217.08 13.65Q214.83 16.65 212.38 18.3 209.93 19.95 207.68 19.95L207.68 19.95ZM231.47 0.5Q228.92 0.5 228.92-4.35L228.92-4.35Q228.92-9 230.95-13.53 232.97-18.05 236.42-20.93 239.87-23.8 243.87-23.8L243.87-23.8Q245.92-23.8 247.42-23.15L247.42-23.15Q246.77-20.6 246.52-19.4L246.52-19.4 245.47-14Q244.07-7.6 243.77-5.15L243.77-5.15Q243.72-4.8 243.72-4.3L243.72-4.3Q243.72-3.2 244.37-3.2L244.37-3.2Q245.17-3.2 245.87-4.23 246.57-5.25 247.47-7.15L247.47-7.15Q247.52-7.2 247.65-7.45 247.77-7.7 247.97-7.7L247.97-7.7Q248.27-7.7 248.27-7.1L248.27-7.1 248.17-6.3Q247.82-4.65 246.75-3.05 245.67-1.45 244.35-0.48 243.02 0.5 241.97 0.5L241.97 0.5Q240.22 0.5 240.22-2.35L240.22-2.35Q240.22-3.45 240.47-4.6L240.47-4.6 241.32-8.95 241.27-8.95Q238.87-4.75 236.15-2.13 233.42 0.5 231.47 0.5L231.47 0.5ZM233.82-3.6Q235.22-3.6 237.05-5.78 238.87-7.95 240.45-11.1 242.02-14.25 242.62-16.75L242.62-16.75 243.42-19.95Q241.92-20.95 240.27-20.95L240.27-20.95Q238.12-20.95 236.35-18.48 234.57-16 233.57-12.48 232.57-8.95 232.57-6.1L232.57-6.1Q232.57-4.85 232.85-4.23 233.12-3.6 233.82-3.6L233.82-3.6ZM254.02 0.5Q252.47 0.5 251.37-0.35 250.27-1.2 249.92-2.6L249.92-2.6Q249.82-3 250.25-3.88 250.67-4.75 251.37-5.6L251.37-5.6Q251.77-6.05 252.02-6.05L252.02-6.05Q252.27-6.05 252.42-5.65L252.42-5.65Q253.92-2.15 256.57-2.15L256.57-2.15Q257.92-2.15 258.7-2.98 259.47-3.8 259.47-5.2L259.47-5.2Q259.47-7.1 257.32-10.1L257.32-10.1 256.27-11.6Q255.07-13.3 254.6-14.4 254.12-15.5 254.12-16.75L254.12-16.75Q254.12-18.75 255.2-20.35 256.27-21.95 258.02-22.88 259.77-23.8 261.67-23.8L261.67-23.8Q265.27-23.8 265.27-21.35L265.27-21.35Q265.27-20.45 264.62-19.55L264.62-19.55Q264.27-18.95 264.02-18.95L264.02-18.95Q263.72-18.95 263.47-19.55L263.47-19.55Q262.92-20.5 262.15-20.93 261.37-21.35 260.17-21.35L260.17-21.35Q258.77-21.35 257.92-20.6 257.07-19.85 257.07-18.7L257.07-18.7Q257.07-18.05 257.5-17.23 257.92-16.4 259.12-14.7L259.12-14.7 260.17-13.25Q261.57-11.4 262.12-10.08 262.67-8.75 262.67-7.3L262.67-7.3Q262.67-5.45 261.47-3.63 260.27-1.8 258.27-0.65 256.27 0.5 254.02 0.5L254.02 0.5Z" opacity="1" transform="matrix(1,0,0,1,0,0)" fill="#000000" class="undefined-text-0" data-fill-palette-color="primary" id="text-0"></path></svg></g></svg></g><g transform="matrix(1,0,0,1,0,72.53768845330762)"><svg viewBox="0 0 244.43135999999998 36.2666142406649" height="36.2666142406649" width="244.43135999999998"><g transform="matrix(1,0,0,1,0,0)"><svg width="244.43135999999998" viewBox="0.800000011920929 -31.549999237060547 216.00999450683594 32.04999923706055" height="36.2666142406649" data-palette-color="#374151"><path d="M0.8-21.7Q0.8-26.15 3.4-28.85 6-31.55 10.53-31.55 15.05-31.55 19.8-30.65L19.8-30.65 18.8-22.65Q13.85-23.8 12-23.8L12-23.8Q9.65-23.8 9.65-21.9L9.65-21.9Q9.65-21.15 10.78-20.45 11.9-19.75 13.5-18.98 15.1-18.2 16.7-17.13 18.3-16.05 19.43-14.05 20.55-12.05 20.55-9.45L20.55-9.45Q20.55-4.7 18-2.1 15.45 0.5 10.78 0.5 6.1 0.5 1.65-0.95L1.65-0.95 2.2-8.4Q7.55-6.85 9.65-6.85 11.75-6.85 11.75-8.7L11.75-8.7Q11.75-9.65 10.63-10.45 9.5-11.25 7.9-12.05 6.3-12.85 4.67-13.9 3.05-14.95 1.93-16.95 0.8-18.95 0.8-21.7L0.8-21.7ZM81.92-6.6L81.67 0.05Q77.97 0.5 75.25 0.5 72.52 0.5 71-0.93 69.47-2.35 69.47-5.85L69.47-5.85 69.47-17.45 67.07-17.45 67.07-23.65 69.87-23.65 70.32-28.25 77.87-28.25 77.87-23.65 82.32-23.65 81.97-17.45 77.82-17.45 77.82-7.5Q77.82-6.45 78.82-6.45L78.82-6.45Q78.92-6.45 81.92-6.6L81.92-6.6ZM147.39-17.7L147.39-17.7 147.14-7.35Q147.14-6.4 147.62-6.08 148.09-5.75 149.24-5.75L149.24-5.75 148.49 0.3Q145.59 0.5 145.29 0.5L145.29 0.5Q141.59 0.5 140.59-2.05L140.59-2.05 140.34-2.05Q138.49 0.5 134.64 0.5L134.64 0.5Q131.69 0.5 130.12-1.4 128.54-3.3 128.54-6.6L128.54-6.6Q128.54-10.75 131.12-12.35 133.69-13.95 139.24-14.45L139.24-14.45 139.24-15.65Q139.24-17.05 137.84-17.05L137.84-17.05Q135.44-17.05 130.34-15.6L130.34-15.6 129.09-22.9Q135.49-24.55 139.74-24.55 143.99-24.55 145.69-22.9 147.39-21.25 147.39-17.7ZM137.74-5.35L137.74-5.35Q139.59-5.35 139.59-7.3L139.59-7.3 139.59-9.75Q137.74-9.5 136.97-8.97 136.19-8.45 136.19-7.2L136.19-7.2Q136.19-5.35 137.74-5.35ZM204.61-22.2L204.81-22.2Q207.56-24.55 210.86-24.55 214.16-24.55 215.49-23.03 216.81-21.5 216.81-18.45L216.81-18.45 216.81 0 208.31 0 208.31-15.6Q208.31-16.85 207.21-16.85L207.21-16.85Q205.81-16.85 204.86-16.15L204.86-16.15 204.86 0 196.46 0 196.46-23.95 204.11-23.95 204.61-22.2Z" opacity="1" transform="matrix(1,0,0,1,0,0)" fill="#000000" class="undefined-text-1" data-fill-palette-color="secondary" id="text-1"></path></svg></g></svg></g></svg></g></svg></g></svg></g></svg></g></svg></g><path d="M157.33 63.198L157.33 4.238 395.52 4.238 395.52 242.962 157.33 242.962 157.33 184.002 162.623 184.002 162.623 237.67 390.228 237.67 390.228 9.53 162.623 9.53 162.623 63.198Z" fill="#000000" stroke="transparent" data-fill-palette-color="primary"></path></svg></g><defs></defs></svg><rect width="395.52" height="247.2" fill="none" stroke="none" visibility="hidden"></rect></g></svg></g></svg>